<?xml version="1.0" encoding="UTF-8" standalone="no"?>
<!-- Uploaded to: SVG Repo, www.svgrepo.com, Generator: SVG Repo Mixer Tools -->

<svg
   width="800"
   height="800"
   viewBox="0 0 1024 1024"
   class="icon"
   version="1.1"
   id="svg8"
   sodipodi:docname="path3.svg"
   inkscape:export-filename="path3.png"
   inkscape:export-xdpi="96"
   inkscape:export-ydpi="96"
   xmlns:inkscape="http://www.inkscape.org/namespaces/inkscape"
   xmlns:sodipodi="http://sodipodi.sourceforge.net/DTD/sodipodi-0.dtd"
   xmlns="http://www.w3.org/2000/svg"
   xmlns:svg="http://www.w3.org/2000/svg">
  <defs
     id="defs8" />
  <sodipodi:namedview
     id="namedview8"
     pagecolor="#ffffff"
     bordercolor="#000000"
     borderopacity="0.25"
     inkscape:showpageshadow="2"
     inkscape:pageopacity="0.0"
     inkscape:pagecheckerboard="0"
     inkscape:deskcolor="#d1d1d1" />
  <path
     d="m 159.47,513.51 a 350,440 0 1 0 700,0 350,440 0 1 0 -700,0 z"
     fill="#ffffff"
     id="path1" />
  <path
     d="M 509.47,961 C 461,961 414,949.08 369.71,925.56 327.12,902.91 288.9,870.56 256.11,829.31 189,744.88 152,632.73 152,513.51 c 0,-119.22 37,-231.37 104.14,-315.8 32.79,-41.22 71,-73.6 113.6,-96.25 C 414,77.94 461,66 509.47,66 c 48.47,0 95.53,11.94 139.76,35.47 42.59,22.65 80.81,55 113.6,96.25 C 830,282.14 867,394.29 867,513.51 c 0,119.22 -37,231.37 -104.14,315.8 -32.79,41.22 -71,73.6 -113.6,96.25 C 605,949.08 558,961 509.47,961 Z m 0,-880 c -46,0 -90.66,11.34 -132.71,33.7 -40.76,21.67 -77.4,52.74 -108.9,92.34 -31.5,39.6 -56.42,86 -73.77,137.58 -18,53.49 -27.09,110.31 -27.09,168.89 0,58.58 9.12,115.4 27.11,168.88 17.32,51.61 42.14,97.85 73.74,137.61 31.6,39.76 68.14,70.67 108.9,92.34 42.05,22.36 86.71,33.7 132.71,33.7 46,0 90.66,-11.34 132.71,-33.7 40.76,-21.68 77.4,-52.74 108.9,-92.34 31.5,-39.6 56.42,-86 73.77,-137.58 C 842.85,628.92 852,572.1 852,513.51 852,454.92 842.88,398.11 824.89,344.63 807.54,293.06 782.72,246.77 751.12,207.05 719.52,167.33 683,136.39 642.19,114.71 600.13,92.35 555.48,81 509.47,81 Z"
     fill="#66a9f7"
     id="path2" />
  <path
     d="m 209.47,513.51 a 300,380 0 1 0 600,0 300,380 0 1 0 -600,0 z"
     fill="#dfedff"
     id="path3" />
  <path
     d="m 509.49,896 a 243.9,243.9 0 0 1 -29.81,-1.83 2.5185363,2.5185363 0 1 1 0.61,-5 238.86,238.86 0 0 0 29.18,1.83 h 0.19 a 2.5,2.5 0 1 1 0,5 z m 29.84,-1.86 a 2.5048004,2.5048004 0 0 1 -0.31,-5 239.68,239.68 0 0 0 28.91,-5.45 2.5017694,2.5017694 0 0 1 1.23,4.85 244.8,244.8 0 0 1 -29.52,5.56 z m -88.57,-5.42 a 2.51,2.51 0 0 1 -0.61,-0.08 251.55,251.55 0 0 1 -28.64,-9.06 2.5006499,2.5006499 0 1 1 1.79,-4.67 246.35,246.35 0 0 0 28.06,8.88 2.5,2.5 0 0 1 -0.61,4.93 z m 146.12,-9.11 a 2.5,2.5 0 0 1 -0.9,-4.83 258.17,258.17 0 0 0 26.83,-12.16 2.500365,2.500365 0 0 1 2.32,4.43 263.34,263.34 0 0 1 -27.35,12.4 2.49,2.49 0 0 1 -0.9,0.18 z M 395.3,867.53 a 2.49,2.49 0 0 1 -1.15,-0.28 278.71,278.71 0 0 1 -25.82,-15.32 2.5016994,2.5016994 0 1 1 2.78,-4.16 273.93,273.93 0 0 0 25.35,15 2.5,2.5 0 0 1 -1.16,4.72 z m 254.24,-15.39 a 2.5,2.5 0 0 1 -1.39,-4.58 292.84,292.84 0 0 0 23.64,-17.65 2.5,2.5 0 1 1 3.19,3.85 297.92,297.92 0 0 1 -24,18 2.49,2.49 0 0 1 -1.44,0.38 z M 345.86,834.58 a 2.49,2.49 0 0 1 -1.59,-0.57 c -7.6,-6.27 -15.06,-13.06 -22.19,-20.18 a 2.5,2.5 0 0 1 3.53,-3.54 c 7,7 14.36,13.69 21.84,19.86 a 2.5,2.5 0 0 1 -1.59,4.43 z M 695.37,814.29 A 2.5,2.5 0 0 1 693.6,810 c 6.86,-6.87 13.56,-14.21 19.92,-21.81 a 2.5024838,2.5024838 0 0 1 3.84,3.21 336.97,336.97 0 0 1 -20.22,22.14 2.49,2.49 0 0 1 -1.77,0.75 z M 303.76,792.6 a 2.49,2.49 0 0 1 -1.92,-0.89 360.628,360.628 0 0 1 -18.26,-23.76 2.5011247,2.5011247 0 0 1 4.09,-2.88 c 5.71,8.1 11.77,16 18,23.43 a 2.5,2.5 0 0 1 -1.92,4.11 z m 429.79,-23.91 a 2.5,2.5 0 0 1 -2,-3.94 c 5.6,-8 11,-16.32 16,-24.84 a 2.5,2.5 0 0 1 4.3,2.55 c -5.11,8.64 -10.58,17.1 -16.25,25.17 a 2.5,2.5 0 0 1 -2.06,1.06 z M 269.45,744 a 2.5,2.5 0 0 1 -2.15,-1.23 c -5,-8.49 -9.84,-17.34 -14.29,-26.32 a 2.5,2.5 0 0 1 4.48,-2.22 c 4.4,8.87 9.15,17.61 14.12,26 a 2.5,2.5 0 0 1 -2.15,3.78 z m 494.42,-26.5 a 2.5,2.5 0 0 1 -2.24,-3.61 403.95,403.95 0 0 0 12.15,-27 2.50045,2.50045 0 0 1 4.63,1.89 c -3.78,9.26 -7.92,18.45 -12.3,27.3 a 2.5,2.5 0 0 1 -2.24,1.43 z M 243,690.73 a 2.5,2.5 0 0 1 -2.31,-1.55 c -3.75,-9.15 -7.24,-18.6 -10.38,-28.08 a 2.5013696,2.5013696 0 1 1 4.75,-1.57 c 3.1,9.38 6.55,18.72 10.26,27.76 a 2.5,2.5 0 0 1 -2.31,3.45 z m 543.4,-28.29 a 2.5,2.5 0 0 1 -2.37,-3.28 c 3.06,-9.28 5.86,-18.84 8.33,-28.41 a 2.5,2.5 0 1 1 4.84,1.25 449.99,449.99 0 0 1 -8.42,28.73 2.5,2.5 0 0 1 -2.39,1.71 z m -562.12,-28.2 a 2.5,2.5 0 0 1 -2.42,-1.88 462.75,462.75 0 0 1 -6.53,-29.21 2.5,2.5 0 1 1 4.91,-0.93 c 1.84,9.7 4,19.42 6.46,28.89 a 2.5,2.5 0 0 1 -2.42,3.13 z m 577,-29.43 a 2.5,2.5 0 0 1 -2.46,-3 c 1.82,-9.62 3.36,-19.46 4.57,-29.25 a 2.5191467,2.5191467 0 0 1 5,0.62 473.69,473.69 0 0 1 -4.62,29.57 2.5,2.5 0 0 1 -2.53,2.07 z m -588.08,-29 a 2.5,2.5 0 0 1 -2.48,-2.19 c -1.23,-9.83 -2.16,-19.85 -2.77,-29.79 a 2.5048004,2.5048004 0 0 1 5,-0.31 c 0.61,9.84 1.53,19.76 2.75,29.48 a 2.5,2.5 0 0 1 -2.17,2.79 z m 595.41,-30 h -0.15 a 2.5,2.5 0 0 1 -2.34,-2.65 c 0.6,-9.78 0.9,-19.74 0.9,-29.6 v -0.76 a 2.5,2.5 0 0 1 2.5,-2.5 2.5,2.5 0 0 1 2.5,2.5 v 0.77 c 0,10 -0.31,20 -0.91,29.9 a 2.5,2.5 0 0 1 -2.54,2.29 z m -599.1,-29.37 a 2.5,2.5 0 0 1 -2.5,-2.5 v -0.38 c 0,-9.83 0.3,-19.77 0.89,-29.52 a 2.504496,2.504496 0 0 1 5,0.3 c -0.58,9.66 -0.88,19.49 -0.88,29.22 v 0.38 a 2.5,2.5 0 0 1 -2.55,2.45 z m 599,-30.9 a 2.5,2.5 0 0 1 -2.49,-2.34 c -0.62,-9.84 -1.55,-19.76 -2.77,-29.48 a 2.5191467,2.5191467 0 0 1 5,-0.62 c 1.23,9.82 2.18,19.85 2.8,29.79 a 2.5,2.5 0 0 1 -2.34,2.65 z M 213.07,457 h -0.31 a 2.5,2.5 0 0 1 -2.18,-2.79 c 1.22,-9.9 2.76,-19.85 4.59,-29.57 a 2.5,2.5 0 1 1 4.91,0.92 c -1.81,9.62 -3.34,19.47 -4.55,29.26 a 2.5,2.5 0 0 1 -2.46,2.18 z m 588,-30.54 a 2.5,2.5 0 0 1 -2.45,-2 c -1.85,-9.69 -4,-19.41 -6.49,-28.89 a 2.5,2.5 0 0 1 4.84,-1.25 c 2.48,9.58 4.69,19.41 6.56,29.2 a 2.5,2.5 0 0 1 -2.46,3 z m -577,-27.94 a 2.5,2.5 0 0 1 -2.42,-3.12 c 2.48,-9.67 5.31,-19.34 8.4,-28.73 a 2.5,2.5 0 1 1 4.75,1.56 c -3.06,9.29 -5.85,18.85 -8.3,28.41 a 2.5,2.5 0 0 1 -2.41,1.88 z m 562.06,-29.66 a 2.5,2.5 0 0 1 -2.37,-1.71 428.94,428.94 0 0 0 -10.28,-27.75 2.5023439,2.5023439 0 0 1 4.63,-1.9 c 3.75,9.14 7.25,18.59 10.4,28.08 a 2.5,2.5 0 0 1 -2.37,3.29 z M 242.7,342 a 2.5,2.5 0 0 1 -2.31,-3.44 c 3.78,-9.27 7.91,-18.46 12.28,-27.31 a 2.5,2.5 0 0 1 4.48,2.21 c -4.32,8.75 -8.4,17.83 -12.13,27 A 2.5,2.5 0 0 1 242.7,342 Z m 520.83,-28.18 a 2.5,2.5 0 0 1 -2.24,-1.39 c -4.4,-8.86 -9.16,-17.6 -14.14,-26 a 2.5,2.5 0 1 1 4.3,-2.55 c 5,8.48 9.86,17.33 14.32,26.31 a 2.5,2.5 0 0 1 -2.24,3.61 z M 269.06,288.67 a 2.5,2.5 0 0 1 -2.15,-3.77 c 5.1,-8.64 10.56,-17.11 16.23,-25.19 a 2.5,2.5 0 1 1 4.09,2.87 c -5.59,8 -11,16.33 -16,24.86 a 2.5,2.5 0 0 1 -2.17,1.23 z m 464,-26 a 2.5,2.5 0 0 1 -2,-1.06 c -5.72,-8.09 -11.79,-16 -18,-23.42 a 2.5,2.5 0 1 1 3.83,-3.21 c 6.34,7.55 12.49,15.54 18.29,23.75 a 2.5,2.5 0 0 1 -2,3.94 z M 303.26,240 a 2.5,2.5 0 0 1 -1.92,-4.1 c 6.45,-7.73 13.24,-15.19 20.19,-22.16 a 2.5,2.5 0 0 1 3.54,3.53 332.698,332.698 0 0 0 -19.89,21.84 2.49,2.49 0 0 1 -1.92,0.89 z m 391.57,-22.8 a 2.49,2.49 0 0 1 -1.76,-0.73 c -7,-7 -14.38,-13.67 -21.86,-19.84 a 2.5005999,2.5005999 0 1 1 3.18,-3.86 c 7.6,6.26 15.08,13 22.21,20.15 a 2.5,2.5 0 0 1 -1.76,4.27 z M 345.27,197.93 a 2.5,2.5 0 0 1 -1.6,-4.42 298.34,298.34 0 0 1 24,-18 2.50033,2.50033 0 1 1 2.79,4.15 293.24,293.24 0 0 0 -23.61,17.68 2.49,2.49 0 0 1 -1.58,0.59 z M 648.9,179.46 a 2.49,2.49 0 0 1 -1.38,-0.42 273.54,273.54 0 0 0 -25.37,-15 2.5024838,2.5024838 0 0 1 2.31,-4.44 278.55,278.55 0 0 1 25.84,15.28 2.5,2.5 0 0 1 -1.39,4.58 z M 394.63,164.85 a 2.5,2.5 0 0 1 -1.16,-4.71 263.52,263.52 0 0 1 27.33,-12.44 2.5,2.5 0 1 1 1.8,4.66 258.54,258.54 0 0 0 -26.81,12.2 2.49,2.49 0 0 1 -1.16,0.29 z m 201.54,-12.73 a 2.49,2.49 0 0 1 -0.89,-0.17 246.28,246.28 0 0 0 -28.08,-8.84 2.5,2.5 0 1 1 1.21,-4.85 251.13,251.13 0 0 1 28.65,9 2.5,2.5 0 0 1 -0.89,4.84 z M 450,143.47 a 2.5,2.5 0 0 1 -0.61,-4.92 244.79,244.79 0 0 1 29.51,-5.61 2.5197669,2.5197669 0 0 1 0.63,5 239.83,239.83 0 0 0 -28.9,5.5 2.5,2.5 0 0 1 -0.63,0.03 z m 88.55,-5.69 h -0.31 a 239,239 0 0 0 -28.8,-1.75 h -0.57 a 2.5,2.5 0 0 1 0,-5 h 0.58 a 243.89,243.89 0 0 1 29.41,1.78 2.504496,2.504496 0 0 1 -0.3,5 z"
     fill="#66a9f7"
     id="path4" />
  <path
     d="m 631.34,234.13 a 57.26,57.26 0 0 1 -51.49,-51.25 57.26,57.26 0 0 1 -51.49,51.25 57.26,57.26 0 0 1 51.49,51.25 57.26,57.26 0 0 1 51.49,-51.25 z"
     fill="#dfedff"
     id="path5" />
  <path
     d="m 579.85,292.88 a 7.5,7.5 0 0 1 -7.46,-6.76 49.76,49.76 0 0 0 -44.74,-44.53 7.5,7.5 0 0 1 0,-14.93 49.76,49.76 0 0 0 44.74,-44.52 7.5,7.5 0 0 1 14.93,0 49.76,49.76 0 0 0 44.68,44.53 7.5,7.5 0 0 1 0,14.93 49.76,49.76 0 0 0 -44.74,44.53 7.5,7.5 0 0 1 -7.41,6.75 z m -26.22,-58.75 a 65.1,65.1 0 0 1 26.22,26.19 65.1,65.1 0 0 1 26.22,-26.19 65.1,65.1 0 0 1 -26.22,-26.19 65.1,65.1 0 0 1 -26.22,26.19 z"
     fill="#66a9f7"
     id="path6" />
  <path
     d="M 742.47,344.56 A 82,82 0 0 1 668.7,271.14 82,82 0 0 1 594.93,344.56 82,82 0 0 1 668.7,418 82,82 0 0 1 742.47,344.56 Z"
     fill="#dfedff"
     id="path7" />
  <path
     d="m 668.7,425.48 a 7.5,7.5 0 0 1 -7.46,-6.76 74.54,74.54 0 0 0 -67,-66.69 7.5,7.5 0 0 1 0,-14.93 74.54,74.54 0 0 0 67,-66.69 7.5,7.5 0 0 1 14.93,0 74.54,74.54 0 0 0 67,66.69 7.5,7.5 0 0 1 0,14.93 74.54,74.54 0 0 0 -67,66.69 7.5,7.5 0 0 1 -7.47,6.76 z m -44.87,-80.92 a 89.9,89.9 0 0 1 44.87,44.82 89.91,89.91 0 0 1 44.87,-44.82 89.9,89.9 0 0 1 -44.87,-44.81 89.9,89.9 0 0 1 -44.86,44.81 z"
     fill="#66a9f7"
     id="path8" />
</svg>
