<?xml version="1.0" encoding="UTF-8" standalone="no"?>
<!-- Created with Inkscape (http://www.inkscape.org/) -->

<svg
   width="163.37233mm"
   height="149.4406mm"
   viewBox="0 0 163.37233 149.4406"
   version="1.1"
   id="svg1"
   xml:space="preserve"
   inkscape:version="1.3.2 (091e20e, 2023-11-25, custom)"
   sodipodi:docname="tshirt_back.svg"
   xmlns:inkscape="http://www.inkscape.org/namespaces/inkscape"
   xmlns:sodipodi="http://sodipodi.sourceforge.net/DTD/sodipodi-0.dtd"
   xmlns="http://www.w3.org/2000/svg"
   xmlns:svg="http://www.w3.org/2000/svg"><sodipodi:namedview
     id="namedview1"
     pagecolor="#ffffff"
     bordercolor="#000000"
     borderopacity="0.25"
     inkscape:showpageshadow="2"
     inkscape:pageopacity="0.0"
     inkscape:pagecheckerboard="0"
     inkscape:deskcolor="#d1d1d1"
     inkscape:document-units="mm"
     inkscape:zoom="0.70710678"
     inkscape:cx="608.11183"
     inkscape:cy="615.89"
     inkscape:window-width="1920"
     inkscape:window-height="974"
     inkscape:window-x="-11"
     inkscape:window-y="-11"
     inkscape:window-maximized="1"
     inkscape:current-layer="layer1" /><defs
     id="defs1" /><g
     inkscape:label="Layer 1"
     inkscape:groupmode="layer"
     id="layer1"
     style="font-variation-settings:normal;opacity:1;vector-effect:none;fill:#ff0000;fill-opacity:1;stroke:#ff0000;stroke-width:1.37933;stroke-linecap:butt;stroke-linejoin:miter;stroke-miterlimit:4;stroke-dasharray:none;stroke-dashoffset:0;stroke-opacity:1;-inkscape-stroke:none;stop-color:#000000;stop-opacity:1"
     transform="translate(-23.842425,-79.588199)"><path
       style="font-variation-settings:normal;opacity:1;vector-effect:none;fill:#f9f9f9;fill-opacity:1;stroke:none;stroke-width:1.37933;stroke-linecap:butt;stroke-linejoin:miter;stroke-miterlimit:4;stroke-dasharray:none;stroke-dashoffset:0;stroke-opacity:1;-inkscape-stroke:none;stop-color:#000000;stop-opacity:1"
       d="m 60.854166,90.752082 c -36.777083,26.987498 -36.5125,27.252088 -36.5125,27.252088 l 17.727083,25.13541 11.1125,-4.49792 c 0,0 0.264584,91.01667 0.264584,89.95834 0,-1.05834 103.452077,-0.26459 103.452077,-0.26459 l -0.26458,-89.69375 12.43542,5.02709 17.4625,-25.66458 -37.83542,-28.045838 -26.72291,-9.789583 c 0,0 -14.69131,14.993573 -34.131254,0.264583 -0.370178,-0.280471 -26.9875,10.31875 -26.9875,10.31875 z"
       id="path1"
       sodipodi:nodetypes="ccccsccccccsc" /><path
       style="font-variation-settings:normal;fill:none;fill-opacity:1;stroke:#000000;stroke-width:1;stroke-linecap:butt;stroke-linejoin:miter;stroke-miterlimit:4;stroke-dasharray:none;stroke-dashoffset:0;stroke-opacity:1;stop-color:#000000"
       d="m 60.854166,90.75208 c -36.777083,26.9875 -36.5125,27.25209 -36.5125,27.25209 l 17.727083,25.13541 11.1125,-4.49792 c 0,0 0.264584,91.01667 0.264584,89.95834 0,-1.05834 103.452077,-0.26459 103.452077,-0.26459 l -0.26458,-89.69375 12.43542,5.02709 17.4625,-25.66458 -37.83542,-28.04584 -26.72291,-9.789583 c 0,0 -14.69131,14.993573 -34.131254,0.264583 -0.370178,-0.280471 -26.9875,10.31875 -26.9875,10.31875 z"
       id="path1-1"
       sodipodi:nodetypes="ccccsccccccsc" /></g></svg>
