<?xml version="1.0" encoding="UTF-8" standalone="no"?>
<!-- Created with Inkscape (http://www.inkscape.org/) -->

<svg
   width="163.37231mm"
   height="149.4406mm"
   viewBox="0 0 163.37231 149.4406"
   version="1.1"
   id="svg1"
   xml:space="preserve"
   inkscape:version="1.3.2 (091e20e, 2023-11-25, custom)"
   sodipodi:docname="tshirt_front.svg"
   xmlns:inkscape="http://www.inkscape.org/namespaces/inkscape"
   xmlns:sodipodi="http://sodipodi.sourceforge.net/DTD/sodipodi-0.dtd"
   xmlns="http://www.w3.org/2000/svg"
   xmlns:svg="http://www.w3.org/2000/svg"><sodipodi:namedview
     id="namedview1"
     pagecolor="#ffffff"
     bordercolor="#000000"
     borderopacity="0.25"
     inkscape:showpageshadow="2"
     inkscape:pageopacity="0.0"
     inkscape:pagecheckerboard="0"
     inkscape:deskcolor="#d1d1d1"
     inkscape:document-units="mm"
     inkscape:zoom="0.70710678"
     inkscape:cx="269.40768"
     inkscape:cy="276.47875"
     inkscape:window-width="1920"
     inkscape:window-height="974"
     inkscape:window-x="-11"
     inkscape:window-y="-11"
     inkscape:window-maximized="1"
     inkscape:current-layer="layer1" /><defs
     id="defs1"><inkscape:path-effect
       effect="spiro"
       id="path-effect6"
       is_visible="true"
       lpeversion="1" /><inkscape:path-effect
       effect="spiro"
       id="path-effect5"
       is_visible="true"
       lpeversion="1" /></defs><g
     inkscape:label="Layer 1"
     inkscape:groupmode="layer"
     id="layer1"
     style="font-variation-settings:normal;opacity:1;vector-effect:none;fill:#ff0000;fill-opacity:1;stroke:#ff0000;stroke-width:1.37933;stroke-linecap:butt;stroke-linejoin:miter;stroke-miterlimit:4;stroke-dasharray:none;stroke-dashoffset:0;stroke-opacity:1;-inkscape-stroke:none;stop-color:#000000;stop-opacity:1"
     transform="translate(-23.842425,-79.588201)"><path
       style="font-variation-settings:normal;opacity:1;vector-effect:none;fill:#f9f9f9;fill-opacity:1;stroke:none;stroke-width:1.37933;stroke-linecap:butt;stroke-linejoin:miter;stroke-miterlimit:4;stroke-dasharray:none;stroke-dashoffset:0;stroke-opacity:1;-inkscape-stroke:none;stop-color:#000000;stop-opacity:1"
       d="m 60.854166,90.752082 c -36.777083,26.987498 -36.5125,27.252088 -36.5125,27.252088 l 17.727083,25.13541 11.1125,-4.49792 c 0,0 0.264584,91.01667 0.264584,89.95834 0,-1.05834 103.452077,-0.26459 103.452077,-0.26459 l -0.26458,-89.69375 12.43542,5.02709 17.4625,-25.66458 -37.83542,-28.045838 -26.72291,-9.789583 c 0,0 -14.69131,14.993573 -34.131254,0.264583 -0.370178,-0.280471 -26.9875,10.31875 -26.9875,10.31875 z"
       id="path1"
       sodipodi:nodetypes="ccccsccccccsc"
       inkscape:export-filename="tshirt_front.svg"
       inkscape:export-xdpi="96"
       inkscape:export-ydpi="96" /><path
       style="font-variation-settings:normal;fill:none;fill-opacity:1;stroke:#000000;stroke-width:1;stroke-linecap:butt;stroke-linejoin:miter;stroke-miterlimit:4;stroke-dasharray:none;stroke-dashoffset:0;stroke-opacity:1;stop-color:#000000"
       d="m 60.854166,90.75208 c -36.777083,26.9875 -36.5125,27.25209 -36.5125,27.25209 l 17.727083,25.13541 11.1125,-4.49792 c 0,0 0.264584,91.01667 0.264584,89.95834 0,-1.05834 103.452077,-0.26459 103.452077,-0.26459 l -0.26458,-89.69375 12.43542,5.02709 17.4625,-25.66458 -37.83542,-28.04584 -26.72291,-9.789583 c 0,0 -14.69131,14.993573 -34.131254,0.264583 -0.370178,-0.280471 -26.9875,10.31875 -26.9875,10.31875 z"
       id="path1-1"
       sodipodi:nodetypes="ccccsccccccsc" /><path
       style="font-variation-settings:normal;fill:#dbe2e3;fill-opacity:1;stroke:#000000;stroke-width:0.7;stroke-linecap:butt;stroke-linejoin:miter;stroke-miterlimit:4;stroke-dasharray:2.8, 0.7;stroke-dashoffset:0;stroke-opacity:1;stop-color:#000000"
       d="m 182.71,115.6424 -18.25635,26.4584"
       id="path6-6"
       sodipodi:nodetypes="cc" /><path
       style="font-variation-settings:normal;opacity:1;fill:none;fill-opacity:1;stroke:#000000;stroke-width:1;stroke-linecap:butt;stroke-linejoin:miter;stroke-miterlimit:4;stroke-dasharray:none;stroke-dashoffset:0;stroke-opacity:1"
       d="m 52.946092,139.10043 c 0,0 8.796335,-11.17397 9.269574,-27.17171 0.473239,-15.997733 -0.944128,-21.564895 -0.944128,-21.564895"
       id="path2"
       sodipodi:nodetypes="czc" /><path
       style="font-variation-settings:normal;vector-effect:none;fill:none;fill-opacity:1;stroke:#000000;stroke-width:1;stroke-linecap:butt;stroke-linejoin:miter;stroke-miterlimit:4;stroke-dasharray:none;stroke-dashoffset:0;stroke-opacity:1;-inkscape-stroke:none;stop-color:#000000"
       d="m 156.97423,139.08288 c 0,0 -8.79638,-11.17397 -9.26963,-27.17171 -0.47324,-15.997731 0.94414,-21.564893 0.94414,-21.564893"
       id="path2-9"
       sodipodi:nodetypes="czc" /><path
       style="font-variation-settings:normal;opacity:1;fill:none;fill-opacity:1;stroke:#000000;stroke-width:0.7;stroke-linecap:butt;stroke-linejoin:miter;stroke-miterlimit:4;stroke-dasharray:none;stroke-dashoffset:0;stroke-opacity:1"
       d="m 83.716549,81.786971 c 0.275808,2.616616 0.908883,5.195334 1.876158,7.642195 1.56309,3.954061 4.025296,7.578221 7.276042,10.318749 2.871754,2.421015 6.362752,4.136975 10.067471,4.756165 3.70471,0.61918 7.61581,0.11545 10.9669,-1.58116 3.52462,-1.78447 6.31666,-4.805613 8.33438,-8.202088 2.30813,-3.885323 3.68039,-8.322299 3.96875,-12.832291"
       id="path4"
       inkscape:path-effect="#path-effect5"
       inkscape:original-d="m 83.716549,81.786971 c 0.06412,0.458241 0.915407,5.316168 1.876158,7.642195 1.675694,4.056943 5.027084,7.231943 7.276042,10.318749 2.248958,3.086805 16.401311,2.838045 21.034371,3.175005 7.27605,0.52917 2.95451,-0.70556 8.33438,-8.202088 3.72654,-5.192711 2.68993,-8.643056 3.96875,-12.832291"
       sodipodi:nodetypes="cssssc" /><path
       style="font-variation-settings:normal;opacity:1;fill:#999999;fill-opacity:1;stroke:#000000;stroke-width:1;stroke-linecap:butt;stroke-linejoin:miter;stroke-miterlimit:4;stroke-dasharray:none;stroke-dashoffset:0;stroke-opacity:1"
       d="m 89.495311,87.114061 c 1.405345,3.887459 3.853807,7.471041 7.276042,9.789584 2.510396,1.700777 5.523337,2.685041 8.555507,2.658558 3.98453,-0.0348 7.86868,-1.832009 10.69293,-4.642933 1.87663,-1.867774 3.30811,-4.159487 4.29948,-6.614584 0.49895,-1.235633 0.8904,-2.519137 1.09141,-3.836458 0.19935,-1.306472 0.20973,-2.641627 0.0307,-3.951039 -2.02516,1.501259 -4.22726,2.763628 -6.54609,3.752602 -1.30961,0.558542 -2.65707,1.030367 -4.03489,1.389062 -3.18771,0.829875 -6.55989,1.044356 -9.78959,0.396875 -3.180741,-0.637666 -6.132943,-2.080994 -9.0606,-3.478331 -1.300754,-0.620835 -2.604547,-1.235301 -3.911317,-1.84337 0.183314,2.175591 0.654152,4.326782 1.396418,6.380034 z"
       id="path5"
       inkscape:path-effect="#path-effect6"
       inkscape:original-d="m 89.495311,87.114061 c 0.595313,2.138715 4.080291,6.597884 7.276042,9.789584 2.898609,2.894935 5.578947,1.975052 8.555507,2.658558 2.97656,0.683507 7.25335,-3.297969 10.69293,-4.642933 3.43958,-1.344965 2.86632,-4.409723 4.29948,-6.614584 1.43316,-2.20486 -0.93245,-1.735121 1.09141,-3.836458 1.52558,-1.583985 -0.78394,-4.526869 0.0307,-3.951039 0,0 -4.20894,2.275346 -6.54609,3.752602 -2.33715,1.477256 -2.66788,0.948089 -4.03489,1.389062 -1.36702,0.440973 -6.4823,0.242536 -9.78959,0.396875 -3.30729,0.154339 -5.590377,-1.466427 -9.0606,-3.478331 -1.054782,-0.611523 -7.000178,-0.434531 -3.911317,-1.84337 z"
       sodipodi:nodetypes="cssssccsssscc" /><path
       style="font-variation-settings:normal;opacity:1;fill:#dbe2e3;fill-opacity:1;stroke:#000000;stroke-width:0.7;stroke-linecap:butt;stroke-linejoin:miter;stroke-miterlimit:4;stroke-dasharray:2.8, 0.7;stroke-dashoffset:0;stroke-opacity:1"
       d="m 28.045833,115.35833 18.25625,26.45833"
       id="path6"
       sodipodi:nodetypes="cc" /><path
       style="font-variation-settings:normal;opacity:1;fill:#dbe2e3;fill-opacity:1;stroke:#000000;stroke-width:0.7;stroke-linecap:butt;stroke-linejoin:miter;stroke-miterlimit:4;stroke-dasharray:2.8, 0.7;stroke-dashoffset:0;stroke-opacity:1"
       d="M 53.710416,224.36666 156.89791,223.8375"
       id="path7" /></g></svg>
