<?xml version="1.0" encoding="UTF-8" standalone="no"?>
<!-- Created with Inkscape (http://www.inkscape.org/) -->

<svg
   width="158.49779mm"
   height="157.04147mm"
   viewBox="0 0 158.49779 157.04147"
   version="1.1"
   id="svg1"
   xml:space="preserve"
   inkscape:version="1.3.2 (091e20e, 2023-11-25, custom)"
   sodipodi:docname="vneck_front.svg"
   xmlns:inkscape="http://www.inkscape.org/namespaces/inkscape"
   xmlns:sodipodi="http://sodipodi.sourceforge.net/DTD/sodipodi-0.dtd"
   xmlns="http://www.w3.org/2000/svg"
   xmlns:svg="http://www.w3.org/2000/svg"><sodipodi:namedview
     id="namedview1"
     pagecolor="#ffffff"
     bordercolor="#000000"
     borderopacity="0.25"
     inkscape:showpageshadow="2"
     inkscape:pageopacity="0.0"
     inkscape:pagecheckerboard="0"
     inkscape:deskcolor="#d1d1d1"
     inkscape:document-units="mm"
     inkscape:zoom="0.77526476"
     inkscape:cx="249.59215"
     inkscape:cy="158.01054"
     inkscape:window-width="1920"
     inkscape:window-height="974"
     inkscape:window-x="-11"
     inkscape:window-y="-11"
     inkscape:window-maximized="1"
     inkscape:current-layer="layer2" /><defs
     id="defs1"><inkscape:path-effect
       effect="mirror_symmetry"
       start_point="105.79719,121.15485"
       end_point="105.79719,146.40965"
       center_point="105.79719,133.78225"
       id="path-effect10"
       is_visible="true"
       lpeversion="1.2"
       lpesatellites=""
       mode="free"
       discard_orig_path="false"
       fuse_paths="false"
       oposite_fuse="false"
       split_items="false"
       split_open="false"
       link_styles="false" /><inkscape:path-effect
       effect="mirror_symmetry"
       start_point="105.99437,97.70294"
       end_point="105.99437,149.46922"
       center_point="105.99437,123.58608"
       id="path-effect7"
       is_visible="true"
       lpeversion="1.2"
       lpesatellites=""
       mode="free"
       discard_orig_path="false"
       fuse_paths="false"
       oposite_fuse="false"
       split_items="false"
       split_open="false"
       link_styles="false" /></defs><g
     inkscape:groupmode="layer"
     id="layer2"
     inkscape:label="Layer 2"
     transform="translate(-26.240403,-79.741872)"><path
       style="display:inline;fill:#f9f9f9;stroke:#000000;stroke-width:1;stroke-dasharray:none"
       d="m 26.923981,120.69371 19.032471,25.53137 6.266789,-3.24945 0.464206,92.84132 105.607003,0.46421 0.70552,-93.68595 6.25758,3.16566 18.80036,-25.29926 -34.58339,-29.477118 -23.44243,-8.819925 -3.48155,-1.856827 c 0,0 -17.40775,6.963098 -33.654978,0 0,0 0.146055,0.01884 -0.130163,-0.03665 -1.911231,1.187935 -26.561696,10.945503 -26.561696,10.945503 z"
       id="path3"
       sodipodi:nodetypes="cccccccccccsccc"
       inkscape:export-filename="vneck_front.svg"
       inkscape:export-xdpi="96"
       inkscape:export-ydpi="96" /><path
       style="fill:none;stroke:#000000;stroke-width:1;stroke-dasharray:none"
       d="m 52.417359,142.90485 c 0,0 23.102425,-12.8339 9.997039,-51.494786 m 97.156982,51.494786 c 0,0 -23.10242,-12.8339 -9.99704,-51.494786"
       id="path4"
       sodipodi:nodetypes="cc"
       inkscape:path-effect="#path-effect7"
       inkscape:original-d="m 52.417359,142.90485 c 0,0 23.102425,-12.8339 9.997039,-51.494786" /><path
       style="fill:#999999;stroke:#000000;stroke-width:0.9;stroke-dasharray:none"
       d="m 88.927264,80.782635 c 0,0 -0.191871,20.522395 16.590906,30.889255 16.33967,-11.778951 16.34959,-30.708261 16.34959,-30.708261 0,0 -3.68017,2.051239 -15.68595,2.594213 -10.910684,0.493447 -17.254546,-2.775207 -17.254546,-2.775207 z"
       id="path8"
       sodipodi:nodetypes="cccsc" /><path
       style="fill:none;stroke:#000000;stroke-width:0.7"
       d="m 85.186768,82.23057 c 1.360265,11.168123 3.120848,22.33904 20.210742,33.66446 18.6951,-10.40106 20.62751,-30.371918 20.63306,-33.423139"
       id="path9"
       sodipodi:nodetypes="ccc" /><path
       style="fill:none;stroke:#000000;stroke-width:0.7;stroke-dasharray:5.6, 0.7;stroke-dashoffset:0"
       d="m 30.203391,118.76588 19.182432,25.61679 m 132.005167,-25.61679 -19.18243,25.61679"
       id="path10"
       inkscape:path-effect="#path-effect10"
       inkscape:original-d="m 30.203391,118.76588 19.182432,25.61679"
       sodipodi:nodetypes="cc" /><path
       style="fill:none;stroke:#000000;stroke-width:0.7;stroke-dasharray:5.6, 0.7;stroke-dashoffset:0"
       d="M 52.386674,232.75382 158.18386,232.41253"
       id="path11" /><path
       style="fill:none;stroke:#000000;stroke-width:0.7;stroke-dasharray:none"
       d="m 89.346181,84.930301 c 11.374459,5.11988 21.914979,3.012322 32.337189,-0.120661"
       id="path1"
       sodipodi:nodetypes="cc" /></g></svg>
